<?xml version="1.0" encoding="UTF-8"?>
<svg version="1.1" xmlns="http://www.w3.org/2000/svg" width="224" height="224">
<path d="M0 0 C23.54665598 19.29210872 39.56552232 45.36547201 42.77905273 76.0546875 C44.29145524 109.52559544 36.91127249 139.42735489 14.2902832 164.71923828 C-4.50046145 185.17130548 -30.7086655 199.90190016 -58.9440918 201.17773438 C-93.45747289 202.0734765 -122.94779815 193.39152329 -148.24487305 169.43188477 C-168.91004564 149.21859223 -181.11700423 122.02620461 -181.46264648 93.00756836 C-181.54339509 60.02651307 -171.09163992 32.00475685 -147.97094727 8.3671875 C-108.7116079 -30.32200743 -43.4524263 -34.24612212 0 0 Z " fill="#05B959" transform="translate(181.220947265625,22.9453125)"/>
<path d="M0 0 C5.27650173 3.71730063 9.81099009 8.50651109 13.68359375 13.65625 C13.68359375 14.31625 13.68359375 14.97625 13.68359375 15.65625 C14.34359375 15.65625 15.00359375 15.65625 15.68359375 15.65625 C16.06257813 14.55410156 16.06257813 14.55410156 16.44921875 13.4296875 C20.47940742 4.37451676 29.83586723 -1.12397119 38.72412109 -4.65966797 C52.68739841 -9.53446276 68.21451612 -9.34393464 82.68359375 -7.34375 C83.21094842 11.36757484 83.26297389 32.37146694 71.2734375 48 C68.44640671 50.94511316 65.23321992 53.39361613 61.98828125 55.859375 C60.05916881 57.36342876 58.35948601 58.88177584 56.68359375 60.65625 C57.67359375 60.9346875 57.67359375 60.9346875 58.68359375 61.21875 C69.00611158 66.16495646 75.23590099 76.02768572 78.99609375 86.53125 C82.95742581 99.8433659 82.93725008 112.89832089 82.68359375 126.65625 C74.65681383 127.78124919 66.77427477 127.81630304 58.68359375 127.65625 C57.23919922 127.64851563 57.23919922 127.64851563 55.765625 127.640625 C41.37242365 127.03092812 28.77093588 120.309182 19.18359375 109.90625 C15.68359375 105.94855769 15.68359375 105.94855769 15.68359375 103.65625 C15.02359375 103.65625 14.36359375 103.65625 13.68359375 103.65625 C13.30847656 104.75646484 13.30847656 104.75646484 12.92578125 105.87890625 C8.84841324 114.99528566 -0.37571482 120.21591377 -9.31640625 123.65625 C-23.7188441 128.64350194 -38.31368442 128.77245962 -53.31640625 126.65625 C-53.67813101 107.03685531 -53.84940937 85.34299469 -40.25390625 69.5625 C-31.20165215 60.65625 -31.20165215 60.65625 -27.31640625 60.65625 C-27.31640625 59.99625 -27.31640625 59.33625 -27.31640625 58.65625 C-28.30640625 58.3778125 -28.30640625 58.3778125 -29.31640625 58.09375 C-38.71167549 53.59185015 -44.74308005 45.02944104 -48.5703125 35.55078125 C-53.24021562 21.40321496 -53.59901497 7.38330451 -53.31640625 -7.34375 C-36.89956436 -12.0675973 -14.54292946 -8.43637055 0 0 Z " fill="#08B95B" transform="translate(97.31640625,52.34375)"/>
<path d="M0 0 C5.27650173 3.71730063 9.81099009 8.50651109 13.68359375 13.65625 C13.68359375 14.31625 13.68359375 14.97625 13.68359375 15.65625 C14.34359375 15.65625 15.00359375 15.65625 15.68359375 15.65625 C16.06257813 14.55410156 16.06257813 14.55410156 16.44921875 13.4296875 C20.47940742 4.37451676 29.83586723 -1.12397119 38.72412109 -4.65966797 C52.68739841 -9.53446276 68.21451612 -9.34393464 82.68359375 -7.34375 C83.21094842 11.36757484 83.26297389 32.37146694 71.2734375 48 C68.44640671 50.94511316 65.23321992 53.39361613 61.98828125 55.859375 C60.05916881 57.36342876 58.35948601 58.88177584 56.68359375 60.65625 C57.67359375 60.9346875 57.67359375 60.9346875 58.68359375 61.21875 C69.00611158 66.16495646 75.23590099 76.02768572 78.99609375 86.53125 C82.95742581 99.8433659 82.93725008 112.89832089 82.68359375 126.65625 C74.65681383 127.78124919 66.77427477 127.81630304 58.68359375 127.65625 C57.23919922 127.64851563 57.23919922 127.64851563 55.765625 127.640625 C41.37242365 127.03092812 28.77093588 120.309182 19.18359375 109.90625 C15.68359375 105.94855769 15.68359375 105.94855769 15.68359375 103.65625 C15.02359375 103.65625 14.36359375 103.65625 13.68359375 103.65625 C13.30847656 104.75646484 13.30847656 104.75646484 12.92578125 105.87890625 C8.84841324 114.99528566 -0.37571482 120.21591377 -9.31640625 123.65625 C-23.7188441 128.64350194 -38.31368442 128.77245962 -53.31640625 126.65625 C-53.67813101 107.03685531 -53.84940937 85.34299469 -40.25390625 69.5625 C-31.20165215 60.65625 -31.20165215 60.65625 -27.31640625 60.65625 C-27.31640625 59.99625 -27.31640625 59.33625 -27.31640625 58.65625 C-28.30640625 58.3778125 -28.30640625 58.3778125 -29.31640625 58.09375 C-38.71167549 53.59185015 -44.74308005 45.02944104 -48.5703125 35.55078125 C-53.24021562 21.40321496 -53.59901497 7.38330451 -53.31640625 -7.34375 C-36.89956436 -12.0675973 -14.54292946 -8.43637055 0 0 Z M-45.31640625 -0.34375 C-45.61633407 14.68263359 -44.11363018 32.24043567 -34.06640625 44.03125 C-24.2193499 54.1505014 -12.32067474 58.10490085 1.68359375 58.65625 C1.68359375 59.31625 1.68359375 59.97625 1.68359375 60.65625 C1.11253906 60.68203125 0.54148438 60.7078125 -0.046875 60.734375 C-13.69700799 61.68923327 -25.11115604 65.98609491 -34.62890625 75.90625 C-44.7753174 88.00544267 -45.88970568 104.49566496 -45.31640625 119.65625 C-33.24549661 120.0934258 -22.71909256 120.1003739 -11.31640625 115.65625 C-10.3934375 115.305625 -9.47046875 114.955 -8.51953125 114.59375 C1.18846884 110.35753178 6.73631498 102.90713007 10.71875 93.29296875 C12.89305061 87.35105412 13.94746421 81.98914116 13.68359375 75.65625 C14.34359375 75.65625 15.00359375 75.65625 15.68359375 75.65625 C15.69777344 76.29949219 15.71195313 76.94273437 15.7265625 77.60546875 C16.36356526 89.67408857 20.52297277 101.02146296 29.4921875 109.33203125 C42.76715373 120.09623928 58.47515671 119.9557899 74.68359375 119.65625 C75.08767498 109.80864073 74.26811609 101.19650854 71.68359375 91.65625 C71.42835938 90.67527344 71.173125 89.69429688 70.91015625 88.68359375 C68.01988063 79.25705263 61.53773939 71.4966533 52.89453125 66.6796875 C43.95214682 62.54027987 35.5043116 60.97304735 25.68359375 60.65625 C25.68359375 59.99625 25.68359375 59.33625 25.68359375 58.65625 C26.31523438 58.63046875 26.946875 58.6046875 27.59765625 58.578125 C42.03767784 57.66261931 54.11464754 53.8748152 64.05859375 43.15625 C74.17356791 31.05834031 74.93917667 14.84923459 74.68359375 -0.34375 C57.6566084 -0.96605606 41.13336584 -0.5788115 27.6953125 11.43359375 C20.41493577 19.05694326 15.60782762 30.04129109 15.55859375 40.59375 C15.59025006 41.94818765 15.62834149 43.30256959 15.68359375 44.65625 C15.02359375 44.65625 14.36359375 44.65625 13.68359375 44.65625 C13.76609375 43.41875 13.84859375 42.18125 13.93359375 40.90625 C13.90027148 30.29310737 8.91503446 19.41857687 1.8359375 11.62109375 C-11.17631179 -0.56333849 -28.49424647 -0.82336807 -45.31640625 -0.34375 Z " fill="#F6FCF9" transform="translate(97.31640625,52.34375)"/>
<path d="M0 0 C0.99 0 1.98 0 3 0 C3 0.66 3 1.32 3 2 C3.98226562 1.94779297 3.98226562 1.94779297 4.984375 1.89453125 C12.44667885 1.67319173 18.88234935 2.8026045 26 5 C26.86753906 5.25523438 27.73507813 5.51046875 28.62890625 5.7734375 C37.55891672 8.81998254 45.31100156 15.39363041 49.9765625 23.6328125 C54.22574311 33.46106994 56.16406079 43.77361735 56.0625 54.4375 C56.05347656 55.67371094 56.04445313 56.90992188 56.03515625 58.18359375 C56.02355469 59.11300781 56.01195312 60.04242188 56 61 C39.00127179 61.66516763 22.45886876 61.06034541 9.015625 49.2578125 C1.63992961 41.66147665 -2.74867657 30.03705599 -3.125 19.5 C-3.08375 18.675 -3.0425 17.85 -3 17 C-3.66 17 -4.32 17 -5 17 C-4.9175 17.886875 -4.835 18.77375 -4.75 19.6875 C-4.79299701 30.30776062 -9.91365374 41.05235025 -16.70703125 48.99609375 C-25.65254542 57.75328131 -39.57364716 61.26577282 -51.8125 61.17578125 C-53.1428125 61.15064453 -53.1428125 61.15064453 -54.5 61.125 C-55.4178125 61.11597656 -56.335625 61.10695312 -57.28125 61.09765625 C-59.52111556 61.07432432 -61.76041183 61.04159235 -64 61 C-64.78714487 46.17543837 -63.54778229 30.04453892 -54 18 C-53.49855469 17.35933594 -52.99710938 16.71867187 -52.48046875 16.05859375 C-44.46451049 7.02845099 -32.60341483 3.57860411 -21 2 C-17.64497596 1.81033156 -14.35331581 1.79138358 -11 2 C-13.27043148 5.12184329 -15.70407823 7.69229962 -18.625 10.1875 C-27.53274391 17.87001519 -35.16977492 25.70753562 -41 36 C-41 36.66 -41 37.32 -41 38 C-39.94256592 36.92685547 -39.94256592 36.92685547 -38.86376953 35.83203125 C-36.20389519 33.13548674 -33.53702112 30.44595261 -30.86816406 27.75830078 C-29.72208881 26.60227361 -28.57782692 25.44444536 -27.43554688 24.28466797 C-20.61531861 17.36273455 -13.79320163 10.83773633 -6 5 C-2.41578776 6.65724631 -0.74561411 8.3122806 1.625 11.5 C9.36166208 21.40235755 18.10673854 29.67488044 29 36 C29.99 36 30.98 36 32 36 C31.12601563 35.23429687 31.12601563 35.23429687 30.234375 34.453125 C18.81698287 24.32826783 7.51129678 13.76694517 -1 1 C-0.67 0.67 -0.34 0.34 0 0 Z " fill="#08B95B" transform="translate(116,111)"/>
<path d="M0 0 C1 3 1 3 -0.01171875 5.4609375 C-6.84389151 17.34159223 -15.82392083 26.72360529 -26.625 35.09765625 C-28.91988233 36.9358268 -30.96306199 38.88290471 -33 41 C-32.03900391 42.051875 -32.03900391 42.051875 -31.05859375 43.125 C-30.19363281 44.07375 -29.32867187 45.0225 -28.4375 46 C-27.97714355 46.50474854 -27.51678711 47.00949707 -27.04248047 47.52954102 C-24.52556565 50.2965649 -22.05069599 53.09046724 -19.625 55.9375 C-15.16191949 61.08066897 -10.26888337 65.81118356 -5.42480469 70.59130859 C-3.27370279 72.71808343 -1.13701095 74.85907511 1 77 C-8.99426279 75.58488314 -16.9567495 66.66317627 -24 60 C-24.97646484 59.08541016 -24.97646484 59.08541016 -25.97265625 58.15234375 C-30.15602181 54.11608555 -33.64021574 49.73815729 -37 45 C-47.18224372 49.55661313 -55.31692211 59.04820986 -63 66.875 C-63.92683594 67.81085938 -64.85367188 68.74671875 -65.80859375 69.7109375 C-67.51016857 71.42979973 -69.20966256 73.15072655 -70.90625 74.87451172 C-72.59677914 76.59066688 -74.29355187 78.29970492 -76 80 C-72.65378006 69.24540474 -66.38881968 62.03072865 -58.5625 54.1875 C-57.84698975 53.47037842 -57.13147949 52.75325684 -56.39428711 52.0144043 C-51.87147285 47.58445037 -47.1687819 43.65516051 -42 40 C-43.43544302 35.46964225 -45.96242149 32.49538999 -49.1875 29.125 C-49.70779785 28.57199219 -50.2280957 28.01898438 -50.76416016 27.44921875 C-55.07026799 22.903953 -59.46184945 18.44113398 -63.875 14 C-64.49270264 13.37754395 -65.11040527 12.75508789 -65.74682617 12.11376953 C-69.34769371 8.52603143 -73.04460661 5.19334512 -77 2 C-74 1 -74 1 -71.72265625 2.046875 C-59.05462774 10.15738958 -46.47726153 21.46015307 -38 34 C-38 34.66 -38 35.32 -38 36 C-32.6076506 33.16626537 -28.39309427 29.95003027 -24 25.75 C-23.36497559 25.15026367 -22.72995117 24.55052734 -22.07568359 23.93261719 C-9.6797228 13.01939135 -9.6797228 13.01939135 0 0 Z " fill="#EEFAF4" transform="translate(149,72)"/>
<path d="M0 0 C2.51225648 2.51225648 4.68603653 4.77925444 6.875 7.5 C8.87167235 9.87868875 10.7467557 11.65744993 13.375 13.3125 C14.24125 13.869375 15.1075 14.42625 16 15 C16 15.66 16 16.32 16 17 C14.4609375 18.48046875 14.4609375 18.48046875 12.375 20.1875 C8.91212733 23.1100663 6.02489092 26.15830902 3.2265625 29.71484375 C2.82179687 30.13894531 2.41703125 30.56304687 2 31 C1.34 31 0.68 31 0 31 C0 20.77 0 10.54 0 0 Z " fill="#F1FBF6" transform="translate(36,96)"/>
<path d="M0 0 C5.33333333 5.33333333 10.66666667 10.66666667 16 16 C5.77 16 -4.46 16 -15 16 C-10 11 -10 11 -8.0859375 9.12109375 C-5.14554818 6.22769695 -2.33020291 3.42676899 0 0 Z " fill="#F5FCF9" transform="translate(112,172)"/>
<path d="M0 0 C10.23 0 20.46 0 31 0 C25.66666667 5.33333333 20.33333333 10.66666667 15 16 C14.25234375 15.18015625 13.5046875 14.3603125 12.734375 13.515625 C11.73963227 12.42703861 10.74483787 11.33849945 9.75 10.25 C9.25886719 9.71117187 8.76773438 9.17234375 8.26171875 8.6171875 C7.77832031 8.08867188 7.29492188 7.56015625 6.796875 7.015625 C6.35698242 6.53383789 5.91708984 6.05205078 5.46386719 5.55566406 C3.68387342 3.6640496 1.83665227 1.83665227 0 0 Z " fill="#F5FCF8" transform="translate(97,36)"/>
<path d="M0 0 C0.33 0 0.66 0 1 0 C1 9.9 1 19.8 1 30 C-0.65 28.35 -2.3 26.7 -4 25 C-5.75996423 23.38391606 -7.530583 21.77934585 -9.3125 20.1875 C-10.19550781 19.39730469 -11.07851562 18.60710937 -11.98828125 17.79296875 C-12.65214844 17.20128906 -13.31601563 16.60960938 -14 16 C-12.87314977 12.61944932 -11.94615375 11.8920618 -9.25 9.6875 C-5.7137384 6.70358088 -2.893914 3.59546891 0 0 Z " fill="#F8FDFA" transform="translate(187,97)"/>
<path d="M0 0 C0.33 0.99 0.66 1.98 1 3 C-1.20955474 7.14291514 -5.19202456 9.4543945 -9 12 C-7.55575365 8.76138697 -5.74227753 6.38030837 -3.375 3.75 C-2.74335938 3.04359375 -2.11171875 2.3371875 -1.4609375 1.609375 C-0.97882813 1.07828125 -0.49671875 0.5471875 0 0 Z " fill="#D2F2E1" transform="translate(149,72)"/>
</svg>
